<?xml version="1.0" encoding="UTF-8" standalone="no"?>
<svg
   version="1.0"
   width="900.000000pt"
   height="900.000000pt"
   viewBox="0 0 900.000000 900.000000"
   preserveAspectRatio="xMidYMid meet"
   id="svg12"
   sodipodi:docname="png-clipart-illustration-of-different-parts-of-brain-the-motivated-brain-improving-student-attention.svg"
   inkscape:version="1.2.2 (732a01da63, 2022-12-09)"
   xmlns:inkscape="http://www.inkscape.org/namespaces/inkscape"
   xmlns:sodipodi="http://sodipodi.sourceforge.net/DTD/sodipodi-0.dtd"
   xmlns="http://www.w3.org/2000/svg"
   xmlns:svg="http://www.w3.org/2000/svg">
  <defs
     id="defs16" />
  <sodipodi:namedview
     id="namedview14"
     pagecolor="#ffffff"
     bordercolor="#000000"
     borderopacity="0.25"
     inkscape:showpageshadow="2"
     inkscape:pageopacity="0.0"
     inkscape:pagecheckerboard="0"
     inkscape:deskcolor="#d1d1d1"
     inkscape:document-units="pt"
     showgrid="false"
     inkscape:zoom="0.34875"
     inkscape:cx="537.63441"
     inkscape:cy="802.86738"
     inkscape:window-width="960"
     inkscape:window-height="1017"
     inkscape:window-x="-8"
     inkscape:window-y="-8"
     inkscape:window-maximized="0"
     inkscape:current-layer="g10" />
  <g
     transform="translate(0.000000,900.000000) scale(0.100000,-0.100000)"
     fill="#000000"
     stroke="none"
     id="g10">
    <path
       d="M2360 7253 c-362 -71 -751 -313 -997 -618 -147 -183 -270 -424 -303 -599 -14 -72 -42 -108 -123 -162 -146 -97 -291 -272 -372 -448 -126 -273 -179 -635 -146 -1010 12 -133 33 -140 169 -52 131 85 336 167 513 204 89 19 121 23 279 38 82 7 288 -11 402 -36 269 -58 569 -208 813 -405 78 -64 108 -79 138 -69 12 4 54 36 95 71 196 171 467 302 735 355 158 31 385 31 550 -1 105 -20 127 -21 195 -11 107 17 218 53 349 115 389 184 635 456 693 765 26 139 5 361 -45 465 -32 66 -117 165 -185 217 -68 51 -193 110 -285 134 -110 30 -402 27 -550 -4 -60 -13 -130 -32 -154 -43 -53 -23 -123 -25 -160 -3 -28 17 -38 30 -117 159 -91 149 -226 318 -374 466 -252 252 -457 381 -719 451 -57 15 -114 21 -226 23 -82 2 -161 1 -175 -2z"
       id="path2"
       style="fill:#f20d78;fill-opacity:1" />
    <path
       d="M7570 6571 c-5 -11 -10 -46 -10 -78 -1 -315 -269 -626 -585 -678 -149 -25 -238 -73 -274 -148 -43 -89 -12 -154 84 -178 118 -30 372 -245 477 -404 141 -214 248 -513 249 -699 1 -99 15 -111 145 -119 209 -14 429 -69 553 -140 30 -17 82 -57 115 -89 63 -60 92 -70 119 -43 31 30 92 260 122 455 26 167 31 516 10 680 -76 599 -371 1074 -884 1423 -60 42 -104 48 -121 18z"
       id="path4"
       style="fill:#0dbcf2;fill-opacity:1" />
    <path
       d="M5850 5429 c-152 -18 -249 -62 -298 -134 -12 -16 -28 -61 -37 -99 -63 -275 -289 -539 -594 -691 -40 -20 -126 -54 -190 -75 -207 -69 -348 -89 -731 -105 -352 -14 -464 -24 -561 -49 -411 -104 -669 -391 -743 -825 -21 -122 -20 -171 3 -251 111 -388 402 -665 821 -780 180 -49 342 -66 491 -50 203 21 349 69 442 144 55 44 108 43 171 -2 112 -81 259 -118 426 -109 109 6 292 47 320 72 15 13 34 19 56 16 15 -1 19 -12 59 -156 105 -381 323 -755 558 -956 87 -76 215 -160 299 -198 175 -79 381 -118 573 -107 212 12 305 37 318 85 8 31 -13 51 -118 116 -115 71 -219 175 -261 260 -51 106 -45 288 14 399 40 73 93 112 190 142 104 32 244 90 372 154 514 258 841 616 925 1013 34 158 28 388 -13 480 -42 94 -186 227 -317 292 -111 55 -201 76 -325 77 -328 0 -574 -146 -659 -394 -31 -89 -35 -170 -16 -283 20 -112 21 -157 4 -197 -22 -54 -97 -60 -170 -13 -56 36 -73 82 -77 213 -9 259 66 494 206 639 60 62 160 129 216 144 71 19 116 48 133 85 15 30 15 42 5 94 -29 136 -107 328 -192 465 -186 302 -449 494 -787 571 -82 18 -402 27 -513 13z"
       id="path6"
       style="fill:#c10df2;fill-opacity:1" />
    <path
       d="M1214 4385 c-180 -32 -437 -136 -560 -228 -46 -34 -68 -59 -89 -101 -36 -74 -31 -98 54 -232 210 -331 520 -583 863 -700 166 -57 249 -69 473 -69 202 0 291 11 432 51 64 18 83 47 83 126 0 73 35 305 60 395 11 41 32 96 45 121 47 88 32 126 -92 235 -211 185 -501 334 -763 392 -105 23 -398 29 -506 10z"
       id="path8"
       style="fill:#f20d0d;fill-opacity:1" />
    <path
       style="fill:#f2af0d;fill-opacity:1;stroke-width:7.5"
       d="m 2932.9493,7447.2404 c 443.3706,567.9839 1102.8185,698.7758 1524.444,512.6749 249.5735,-110.159 471.613,29.1582 615.4167,63.2434 742.8444,176.0733 2182.4462,-451.7554 2374.272,-1349.083 -40.9178,-235.1493 -49.6727,-362.1406 -205.8161,-464.7102 -100.3719,-65.9337 -322.714,-83.187 -404.4372,-166.7076 -129.4128,-132.2591 -243.9698,-443.5911 -384.7775,-429.2752 -306.2945,31.1409 -281.1045,-35.2086 -788.8981,-18.8964 -376.1672,12.0839 -89.7508,382.6428 -607.9474,666.1647 -627.9312,343.5612 -750.937,2.7093 -944.9705,161.6069 -224.8463,202.0606 -1256.2703,923.7988 -1177.2859,1024.9825 z"
       id="path1680"
       sodipodi:nodetypes="ssscssssscs" />
  </g>
</svg>
