<svg width="102" height="22" viewBox="0 0 102 22" fill="none" xmlns="http://www.w3.org/2000/svg">
<path d="M5.50781 16.5762C4.94792 16.5762 4.35872 16.5111 3.74023 16.3809L3.73047 20.3652C3.73047 20.7428 3.60352 21.0553 3.34961 21.3027C3.0957 21.5501 2.77344 21.6738 2.38281 21.6738C1.99219 21.6738 1.66992 21.5501 1.41602 21.3027C1.16211 21.0553 1.03516 20.7428 1.03516 20.3652C1.03516 20.0592 1.04167 18.8451 1.05469 16.7227C1.06771 15.1471 1.06771 13.8613 1.05469 12.8652C1.03516 11.459 0.989583 10.248 0.917969 9.23242C0.820312 7.83268 0.771484 7.19141 0.771484 7.30859C0.771484 6.76823 0.891927 6.30599 1.13281 5.92188C1.41276 5.48568 1.79036 5.26758 2.26562 5.26758C2.63021 5.26758 2.9362 5.39128 3.18359 5.63867C3.43099 5.88607 3.55469 6.18229 3.55469 6.52734L3.54492 6.625C3.98112 6.3776 4.41732 6.19531 4.85352 6.07812C5.29622 5.95443 5.73893 5.89258 6.18164 5.89258C7.67904 5.89258 8.77279 6.52734 9.46289 7.79688C9.97721 8.75391 10.2344 9.99414 10.2344 11.5176C10.2344 12.9434 9.82747 14.125 9.01367 15.0625C8.14128 16.0716 6.97266 16.5762 5.50781 16.5762ZM6.18164 8.5C5.77148 8.5 5.35482 8.59766 4.93164 8.79297C4.50846 8.98177 4.08203 9.26823 3.65234 9.65234C3.73047 10.9935 3.76953 12.3379 3.76953 13.6855C4.34896 13.8743 4.92839 13.9688 5.50781 13.9688C6.17839 13.9688 6.69271 13.7311 7.05078 13.2559C7.3763 12.8262 7.53906 12.2467 7.53906 11.5176C7.53906 10.6387 7.5 10.0299 7.42188 9.69141C7.23307 8.89714 6.81966 8.5 6.18164 8.5ZM18.5742 8.85156C17.9297 8.85156 17.5423 8.58138 17.4121 8.04102C17.1517 7.99544 16.8848 7.97266 16.6113 7.97266C15.0423 7.97266 14.2578 8.1875 14.2578 8.61719C14.2578 8.87109 14.7298 9.21289 15.6738 9.64258C16.9629 10.235 17.8353 10.6973 18.291 11.0293C19.235 11.7129 19.707 12.4844 19.707 13.3438C19.707 14.4635 19.1862 15.3132 18.1445 15.8926C17.3047 16.3548 16.2728 16.5859 15.0488 16.5859C14.1829 16.5859 13.3919 16.4525 12.6758 16.1855C11.6992 15.821 11.2109 15.2839 11.2109 14.5742C11.2109 13.9232 11.5983 13.5977 12.373 13.5977C12.6725 13.5977 13.1055 13.6921 13.6719 13.8809C14.2383 14.0697 14.6745 14.1641 14.9805 14.1641C16.3021 14.1641 16.9661 13.8971 16.9727 13.3633C16.9727 13.0312 16.5137 12.6634 15.5957 12.2598C14.2546 11.6673 13.3952 11.2409 13.0176 10.9805C12.0996 10.3359 11.6406 9.55143 11.6406 8.62695C11.6406 7.31836 12.334 6.4362 13.7207 5.98047C14.5345 5.71354 15.7715 5.58008 17.4316 5.58008C18.0827 5.58008 18.5645 5.66471 18.877 5.83398C19.3066 6.06185 19.5215 6.48177 19.5215 7.09375C19.5215 8.26562 19.2057 8.85156 18.5742 8.85156ZM31.1523 7.74805C30.4427 9.22591 29.3197 11.5469 27.7832 14.7109C26.9499 16.4102 26.3151 17.8197 25.8789 18.9395C25.7422 19.3431 25.5273 19.9421 25.2344 20.7363C25 21.3483 24.5833 21.6543 23.9844 21.6543C23.6133 21.6543 23.2878 21.5339 23.0078 21.293C22.7279 21.0521 22.5879 20.7493 22.5879 20.3848C22.5879 19.7793 23.278 17.9857 24.6582 15.0039C23.9421 13.5911 22.806 11.5111 21.25 8.76367C21.0938 8.51628 20.9342 8.26562 20.7715 8.01172C20.5957 7.71224 20.5078 7.4388 20.5078 7.19141C20.5078 6.83984 20.6478 6.5306 20.9277 6.26367C21.2077 5.99674 21.5299 5.86328 21.8945 5.86328C22.3242 5.86328 22.6595 6.02279 22.9004 6.3418C23.8249 7.57227 24.9023 9.42448 26.1328 11.8984C26.8294 10.3555 27.2526 9.42448 27.4023 9.10547C27.8646 8.13542 28.3171 7.28255 28.7598 6.54688C29.0397 6.07812 29.4238 5.84375 29.9121 5.84375C30.2767 5.84375 30.6022 5.96745 30.8887 6.21484C31.1751 6.46224 31.3184 6.76497 31.3184 7.12305C31.3184 7.31185 31.263 7.52018 31.1523 7.74805ZM36.9922 16.6152C35.5599 16.6152 34.3587 16.2083 33.3887 15.3945C32.3665 14.5352 31.8555 13.4023 31.8555 11.9961C31.8555 10.7005 32.3145 9.36263 33.2324 7.98242C34.2741 6.4069 35.485 5.61914 36.8652 5.61914C37.5423 5.61914 38.3333 5.80143 39.2383 6.16602C40.3385 6.61523 40.8887 7.13281 40.8887 7.71875C40.8887 8.03776 40.778 8.32096 40.5566 8.56836C40.3223 8.83529 40.0195 8.96875 39.6484 8.96875C39.3685 8.96875 39.0299 8.81901 38.6328 8.51953C38.2422 8.21354 37.653 8.06055 36.8652 8.06055C36.3639 8.06055 35.8203 8.55208 35.2344 9.53516C34.6745 10.4857 34.3945 11.306 34.3945 11.9961C34.3945 12.6797 34.6419 13.2168 35.1367 13.6074C35.6055 13.9785 36.224 14.1641 36.9922 14.1641C37.4284 14.1641 37.9622 13.998 38.5938 13.666C39.2253 13.334 39.6257 13.168 39.7949 13.168C40.1465 13.168 40.446 13.2949 40.6934 13.5488C40.9473 13.8027 41.0742 14.0924 41.0742 14.418C41.0742 14.9258 40.5208 15.4336 39.4141 15.9414C38.4245 16.3906 37.6172 16.6152 36.9922 16.6152ZM45.6738 7.06445C46.1491 6.5957 46.6569 6.2474 47.1973 6.01953C47.7441 5.78516 48.3268 5.66797 48.9453 5.66797C50.0586 5.66797 50.8594 5.98047 51.3477 6.60547C51.7122 7.07422 51.9336 7.79362 52.0117 8.76367C52.0443 9.56445 52.0801 10.3685 52.1191 11.1758C52.2233 12.224 52.2884 12.862 52.3145 13.0898C52.4056 13.8125 52.5163 14.444 52.6465 14.9844C52.679 15.1211 52.6953 15.2415 52.6953 15.3457C52.6953 15.7103 52.5553 16.0098 52.2754 16.2441C52.002 16.485 51.6797 16.6055 51.3086 16.6055C50.651 16.6055 50.2246 16.2799 50.0293 15.6289C49.873 15.1016 49.7298 14.3594 49.5996 13.4023C49.4824 12.4844 49.4238 11.7292 49.4238 11.1367C49.4238 10.974 49.4303 10.7298 49.4434 10.4043C49.4629 10.0723 49.4727 9.82487 49.4727 9.66211C49.4727 9.18034 49.4661 8.90039 49.4531 8.82227C49.3945 8.46419 49.2253 8.28516 48.9453 8.28516C48.2227 8.28516 47.5684 8.61719 46.9824 9.28125C46.6829 9.61328 46.2728 10.2448 45.752 11.1758C45.752 13.5326 45.638 14.9518 45.4102 15.4336C45.1562 15.9674 44.7526 16.2344 44.1992 16.2344C43.8346 16.2344 43.5091 16.1139 43.2227 15.873C42.9427 15.6257 42.8027 15.3229 42.8027 14.9648C42.8027 14.8411 42.8385 14.6686 42.9102 14.4473C42.9557 14.304 42.9948 13.4251 43.0273 11.8105C42.9948 10.502 43.0013 8.32422 43.0469 5.27734L43.0664 4.95508C43.1055 4.18685 43.125 3.67253 43.125 3.41211C43.125 3.21029 43.0924 2.91406 43.0273 2.52344C42.9688 2.1263 42.9395 1.82682 42.9395 1.625C42.9395 1.25391 43.0729 0.951172 43.3398 0.716797C43.6068 0.475911 43.929 0.355469 44.3066 0.355469C44.9512 0.355469 45.3841 0.700521 45.6055 1.39062C45.7292 1.78125 45.791 2.38021 45.791 3.1875C45.791 3.83854 45.7715 4.49935 45.7324 5.16992C45.6934 5.80794 45.6738 6.43945 45.6738 7.06445ZM58.3594 16.5762C57.1549 16.5762 56.1198 16.1628 55.2539 15.3359C54.3034 14.431 53.8053 13.2233 53.7598 11.7129C53.7142 10.2741 54.1081 8.99154 54.9414 7.86523C55.931 6.53711 57.3079 5.87305 59.0723 5.87305C60.3743 5.87305 61.4095 6.39388 62.1777 7.43555C62.8678 8.37305 63.2129 9.53516 63.2129 10.9219C63.2129 12.4323 62.8092 13.7214 62.002 14.7891C61.097 15.9805 59.8828 16.5762 58.3594 16.5762ZM58.9453 8.45117C58.1445 8.44466 57.513 8.80924 57.0508 9.54492C56.6602 10.1634 56.4648 10.8861 56.4648 11.7129C56.4648 12.4941 56.6862 13.0931 57.1289 13.5098C57.4805 13.8418 57.8906 14.0078 58.3594 14.0078C58.9258 14.0078 59.4173 13.8158 59.834 13.4316C60.3092 12.9824 60.5632 12.3737 60.5957 11.6055C60.6803 9.50911 60.1302 8.45768 58.9453 8.45117ZM67.8711 14.5645C67.8711 15.8014 67.4219 16.4199 66.5234 16.4199C66.1328 16.4199 65.8105 16.2962 65.5566 16.0488C65.3027 15.8014 65.1758 15.4824 65.1758 15.0918V1.58594C65.1758 1.20833 65.3125 0.899089 65.5859 0.658203C65.8464 0.436849 66.1686 0.326172 66.5527 0.326172C66.9368 0.326172 67.2526 0.443359 67.5 0.677734C67.7474 0.905599 67.8711 1.20833 67.8711 1.58594V14.5645ZM74.375 16.5762C73.1706 16.5762 72.1354 16.1628 71.2695 15.3359C70.319 14.431 69.821 13.2233 69.7754 11.7129C69.7298 10.2741 70.1237 8.99154 70.957 7.86523C71.9466 6.53711 73.3236 5.87305 75.0879 5.87305C76.39 5.87305 77.4251 6.39388 78.1934 7.43555C78.8835 8.37305 79.2285 9.53516 79.2285 10.9219C79.2285 12.4323 78.8249 13.7214 78.0176 14.7891C77.1126 15.9805 75.8984 16.5762 74.375 16.5762ZM74.9609 8.45117C74.1602 8.44466 73.5286 8.80924 73.0664 9.54492C72.6758 10.1634 72.4805 10.8861 72.4805 11.7129C72.4805 12.4941 72.7018 13.0931 73.1445 13.5098C73.4961 13.8418 73.9062 14.0078 74.375 14.0078C74.9414 14.0078 75.4329 13.8158 75.8496 13.4316C76.3249 12.9824 76.5788 12.3737 76.6113 11.6055C76.696 9.50911 76.1458 8.45768 74.9609 8.45117ZM89.9316 10.1797C89.6582 11.7096 89.4954 13.3242 89.4434 15.0234C89.3783 17.1263 89.0267 18.653 88.3887 19.6035C87.5358 20.873 86.0254 21.5078 83.8574 21.5078C81.3249 21.5078 80.0586 21.0065 80.0586 20.0039C80.0586 19.6458 80.1725 19.3561 80.4004 19.1348C80.6283 18.9134 80.9277 18.8027 81.2988 18.8027C81.5918 18.8027 82.0117 18.8581 82.5586 18.9688C83.1055 19.0794 83.5905 19.1348 84.0137 19.1348C84.9837 19.1348 85.6999 18.8385 86.1621 18.2461C86.6048 17.6667 86.8652 16.7454 86.9434 15.4824C86.6113 15.821 86.237 16.0749 85.8203 16.2441C85.4036 16.4134 84.9479 16.498 84.4531 16.498C83.1576 16.498 82.1029 16.0781 81.2891 15.2383C80.4818 14.3919 80.0781 13.3112 80.0781 11.9961C80.0781 10.2253 80.6185 8.79297 81.6992 7.69922C82.819 6.56641 84.3327 6 86.2402 6C86.8522 6 87.3796 6.07487 87.8223 6.22461C88.265 6.37435 88.623 6.60221 88.8965 6.9082C89.7233 7.00586 90.1367 7.49414 90.1367 8.37305C90.1367 8.80924 90.0684 9.41146 89.9316 10.1797ZM86.1426 8.22656C85.0423 8.22656 84.1862 8.58789 83.5742 9.31055C83.0273 9.9681 82.7539 10.821 82.7539 11.8691C82.7539 12.6439 82.9004 13.2266 83.1934 13.6172C83.4863 14.0078 83.9258 14.2031 84.5117 14.2031C85.0456 14.2031 85.5827 13.8939 86.123 13.2754C86.6309 12.6895 86.9206 12.11 86.9922 11.5371C87.1159 10.9121 87.2591 9.9388 87.4219 8.61719C87.2005 8.48698 86.9824 8.38932 86.7676 8.32422C86.5527 8.25911 86.3444 8.22656 86.1426 8.22656ZM101.211 7.74805C100.501 9.22591 99.3783 11.5469 97.8418 14.7109C97.0085 16.4102 96.3737 17.8197 95.9375 18.9395C95.8008 19.3431 95.5859 19.9421 95.293 20.7363C95.0586 21.3483 94.6419 21.6543 94.043 21.6543C93.6719 21.6543 93.3464 21.5339 93.0664 21.293C92.7865 21.0521 92.6465 20.7493 92.6465 20.3848C92.6465 19.7793 93.3366 17.9857 94.7168 15.0039C94.0007 13.5911 92.8646 11.5111 91.3086 8.76367C91.1523 8.51628 90.9928 8.26562 90.8301 8.01172C90.6543 7.71224 90.5664 7.4388 90.5664 7.19141C90.5664 6.83984 90.7064 6.5306 90.9863 6.26367C91.2663 5.99674 91.5885 5.86328 91.9531 5.86328C92.3828 5.86328 92.7181 6.02279 92.959 6.3418C93.8835 7.57227 94.9609 9.42448 96.1914 11.8984C96.888 10.3555 97.3112 9.42448 97.4609 9.10547C97.9232 8.13542 98.3757 7.28255 98.8184 6.54688C99.0983 6.07812 99.4824 5.84375 99.9707 5.84375C100.335 5.84375 100.661 5.96745 100.947 6.21484C101.234 6.46224 101.377 6.76497 101.377 7.12305C101.377 7.31185 101.322 7.52018 101.211 7.74805Z" fill="white"/>
</svg>
