<?xml version="1.0" standalone="no"?>
<!DOCTYPE svg PUBLIC "-//W3C//DTD SVG 20010904//EN" "http://www.w3.org/TR/2001/REC-SVG-20010904/DTD/svg10.dtd">
<svg version="1.0" xmlns="http://www.w3.org/2000/svg" width="359.000000pt" height="448.000000pt"
    viewBox="0 0 359.000000 448.000000" preserveAspectRatio="xMidYMid meet">

    <g transform="translate(0.000000,448.000000) scale(0.100000,-0.100000)" fill="#ffffff" stroke="none">
        <path d="M1265 4396 c-22 -7 -54 -20 -71 -29 -45 -23 -110 -101 -130 -155 -10
-26 -18 -48 -19 -49 0 -1 -23 5 -50 13 -65 20 -165 14 -230 -15 -55 -24 -115
-77 -151 -133 -32 -49 -64 -149 -64 -196 0 -39 -1 -40 -47 -52 -105 -26 -189
-82 -238 -160 -75 -119 -86 -271 -28 -386 17 -33 38 -66 47 -73 25 -21 19 -36
-26 -67 -53 -37 -121 -129 -145 -197 -25 -71 -25 -222 0 -297 28 -85 84 -159
154 -205 l62 -40 0 -70 c2 -203 117 -387 298 -473 l78 -37 146 -1 c128 0 151
-3 181 -21 49 -29 123 -51 193 -58 134 -14 312 52 410 152 l55 57 0 -520 0
-520 -67 -51 c-83 -62 -119 -80 -172 -89 -50 -8 -80 10 -190 111 -89 81 -136
104 -214 105 -76 0 -121 -24 -217 -115 -98 -93 -128 -109 -194 -101 -82 9
-164 57 -247 141 -67 69 -77 75 -109 73 -26 -2 -38 -9 -48 -30 -18 -39 -4 -66
80 -150 86 -86 169 -133 270 -154 131 -28 192 -6 316 110 102 95 132 111 177
96 19 -6 74 -47 121 -90 129 -118 204 -146 311 -117 l52 14 -20 -28 c-11 -16
-33 -37 -49 -49 -51 -36 -78 -35 -206 9 -246 85 -330 48 -468 -209 -77 -142
-92 -153 -211 -148 -81 4 -133 22 -227 80 -35 21 -39 22 -65 8 -21 -12 -29
-24 -31 -51 -3 -31 2 -41 30 -64 79 -67 223 -110 340 -102 138 9 191 50 272
207 82 158 133 208 199 195 18 -4 77 -22 132 -42 209 -73 305 -39 431 155 94
144 165 145 245 4 42 -75 104 -139 164 -170 72 -37 142 -34 270 11 134 47 149
50 189 33 42 -17 68 -52 142 -189 33 -62 74 -123 96 -142 103 -93 338 -82 490
23 56 40 70 71 48 111 -19 37 -54 36 -118 -4 -74 -45 -138 -65 -212 -65 -110
0 -133 19 -219 187 -112 217 -209 254 -446 172 -84 -29 -127 -39 -149 -35 -33
6 -100 55 -115 85 -9 16 -6 16 50 3 49 -12 70 -13 114 -3 60 13 97 38 199 131
88 79 123 96 169 76 19 -7 70 -48 114 -89 90 -84 137 -112 203 -122 53 -8 170
15 227 43 115 59 243 188 243 246 0 40 -16 56 -56 56 -26 0 -44 -13 -105 -76
-83 -84 -163 -131 -245 -140 -66 -8 -94 7 -197 103 -94 89 -141 113 -217 113
-76 0 -119 -23 -234 -123 -106 -93 -139 -108 -200 -87 -36 12 -132 72 -178
112 l-27 23 -7 515 -7 514 34 -39 c139 -158 421 -209 603 -107 50 28 54 29
168 24 132 -5 215 13 298 66 149 95 249 283 250 469 0 48 3 54 30 68 79 41
146 125 180 226 18 54 21 81 18 169 -3 93 -7 112 -36 171 -29 61 -107 148
-156 176 -18 10 -18 12 7 45 14 18 39 61 54 93 22 49 27 74 28 140 0 182 -103
323 -274 375 l-67 21 -11 65 c-13 74 -57 174 -98 222 -78 93 -228 134 -349 98
-43 -13 -48 -13 -53 2 -50 146 -144 219 -293 229 -206 14 -381 -104 -446 -302
-5 -17 -8 -15 -19 16 -35 97 -83 160 -163 213 -102 68 -255 94 -357 62z m250
-138 c64 -34 118 -90 146 -153 29 -64 31 -200 5 -290 -68 -229 -253 -371 -400
-307 -39 18 -50 29 -68 68 -48 110 10 224 116 224 28 0 40 -7 61 -35 33 -43
59 -51 90 -31 53 35 13 131 -69 170 -71 33 -192 11 -254 -47 -13 -12 -36 -44
-50 -72 -21 -41 -26 -64 -26 -131 -1 -70 3 -88 29 -140 94 -183 347 -188 527
-12 32 32 60 58 63 58 3 0 5 -87 5 -194 l0 -195 -68 6 c-55 5 -77 2 -114 -15
-89 -39 -149 -171 -101 -224 35 -39 103 -11 103 44 0 44 41 80 87 76 54 -5 72
-36 83 -143 9 -87 14 -365 6 -365 -2 0 -23 7 -46 15 -111 39 -243 4 -297 -79
l-28 -42 -45 25 c-61 35 -184 37 -245 4 -148 -79 -184 -296 -66 -396 47 -39
85 -36 110 11 13 25 5 47 -34 86 -30 30 -34 90 -10 137 34 64 128 89 191 50
33 -20 84 -80 84 -99 0 -15 40 -42 62 -42 10 0 27 9 39 21 16 16 20 28 15 55
-9 46 9 106 40 138 22 21 36 26 75 26 71 0 97 -14 119 -62 39 -85 19 -266 -41
-379 -61 -113 -152 -178 -287 -201 -90 -15 -183 6 -259 58 l-53 36 -52 -13
c-74 -18 -173 -16 -239 5 -111 35 -213 140 -249 255 -25 80 -27 226 -4 294 37
108 172 207 284 207 78 0 87 12 92 125 7 153 56 215 170 215 104 0 142 -37
159 -154 9 -64 25 -86 64 -86 12 0 30 9 40 20 25 27 16 129 -18 202 -43 94
-119 137 -247 137 -165 1 -267 -100 -287 -281 -6 -56 -6 -57 -43 -63 -108 -18
-243 -120 -299 -224 -18 -34 -37 -61 -43 -61 -18 0 -80 73 -102 120 -15 34
-20 66 -21 135 0 79 3 97 28 147 35 71 91 120 171 151 56 21 61 26 64 55 3 28
-5 40 -55 90 -32 32 -69 79 -81 105 -62 132 9 306 146 357 47 18 73 21 147 18
76 -3 98 -8 144 -33 59 -32 97 -80 107 -135 9 -46 31 -70 65 -70 40 0 64 38
54 87 -24 131 -135 236 -281 265 -52 10 -54 12 -54 43 0 84 69 192 144 226 73
33 161 20 243 -35 46 -32 58 -32 88 -2 19 19 22 31 18 64 -10 77 36 158 112
194 58 27 172 21 240 -14z m829 3 c53 -33 86 -95 86 -164 0 -69 6 -86 37 -98
20 -7 36 -2 87 26 106 59 203 57 279 -6 41 -34 82 -114 92 -180 l7 -46 -41 -7
c-169 -27 -301 -157 -301 -298 0 -31 5 -41 25 -50 46 -21 77 -1 95 60 35 122
127 177 285 170 76 -3 98 -8 145 -33 63 -35 103 -86 126 -164 31 -102 -1 -195
-98 -286 -83 -78 -77 -117 21 -146 58 -17 138 -91 167 -154 29 -61 33 -185 8
-258 -16 -48 -87 -137 -108 -137 -7 0 -23 23 -36 50 -27 59 -98 136 -158 174
-23 14 -75 37 -115 50 l-72 23 -7 64 c-17 169 -121 269 -280 269 -88 0 -142
-17 -192 -61 -51 -45 -82 -110 -91 -195 -7 -55 -5 -64 14 -83 40 -40 101 -14
101 42 0 52 19 106 50 140 26 29 33 32 101 35 91 4 126 -14 159 -82 17 -36 22
-66 24 -136 1 -56 6 -94 14 -102 7 -7 43 -15 81 -19 83 -7 147 -37 205 -95 73
-73 91 -121 91 -244 0 -128 -19 -197 -74 -270 -104 -138 -250 -190 -429 -151
-61 13 -64 13 -90 -8 -108 -88 -257 -102 -397 -37 -142 65 -227 221 -228 421
-1 137 32 185 128 185 85 0 125 -46 125 -146 0 -63 18 -94 54 -94 29 0 38 8
69 62 35 60 77 90 138 96 63 6 110 -22 134 -80 21 -54 13 -101 -26 -135 -37
-34 -39 -76 -4 -99 75 -49 179 89 160 214 -9 60 -51 138 -90 168 -87 66 -221
72 -306 13 l-25 -18 -35 47 c-47 64 -104 92 -189 92 -36 -1 -83 -7 -105 -15
-22 -8 -42 -15 -43 -15 -2 0 -2 96 0 213 3 187 5 217 23 252 17 34 25 40 56
43 47 4 84 -26 92 -74 8 -46 23 -64 54 -64 47 0 63 17 63 66 0 81 -57 158
-136 184 -23 8 -60 10 -95 6 l-59 -6 0 196 0 196 67 -62 c40 -38 93 -75 132
-93 56 -27 77 -31 146 -31 90 1 133 16 191 66 113 99 114 309 3 415 -61 57
-170 80 -242 49 -42 -17 -107 -92 -107 -123 0 -29 33 -63 61 -63 11 0 36 18
56 40 30 33 43 40 74 40 103 0 159 -147 95 -245 -28 -43 -65 -60 -131 -60
-182 1 -344 223 -345 470 0 85 11 127 49 187 59 93 158 141 277 135 52 -3 82
-10 108 -26z" />
    </g>
</svg>